<mxfile host="app.diagrams.net" modified="2023-12-14T06:18:43.214Z" agent="Mozilla/5.0 (Macintosh; Intel Mac OS X 10_15_7) AppleWebKit/537.36 (KHTML, like Gecko) Chrome/120.0.0.0 Safari/537.36" version="21.6.5" etag="L4Ebm4o8sbwZZELHdhYm" type="github">
  <diagram name="Page-1" id="qHrnoTubtmj_RvILgRcH">
    <mxGraphModel>
      <root>
        <mxCell id="0" />
        <mxCell id="1" parent="0" />
      </root>
    </mxGraphModel>
  </diagram>
</mxfile>
